<mxfile host="app.diagrams.net" modified="2024-01-03T10:25:07.182Z" agent="Mozilla/5.0 (Windows NT 10.0; Win64; x64) AppleWebKit/537.36 (KHTML, like Gecko) Chrome/120.0.0.0 Safari/537.36" version="22.1.16" etag="fpyiBuetApBMofsMFFG6" type="github">
  <diagram name="Page-1" id="6ABzgF_T5052VzuF-lE2">
    <mxGraphModel>
      <root>
        <mxCell id="0" />
        <mxCell id="1" parent="0" />
      </root>
    </mxGraphModel>
  </diagram>
</mxfile>
